<?xml version="1.0" standalone="no"?>
<!DOCTYPE svg PUBLIC "-//W3C//DTD SVG 1.1//EN"
"http://www.w3.org/Graphics/SVG/1.1/DTD/svg11.dtd">

<svg width="632" height="932" view_box="0 0 632 932"
xmlns="http://www.w3.org/2000/svg"
xmlns:link="http://www.w3.org/1999/xlink">\n\n<desc>Généré par Mocodo 2.3.7 le Wed, 23 Oct 2019 04:49:32</desc>

<rect id="frame" x="0" y="0" width="632" height="932" fill="#f7f7f7" stroke="none" stroke-width="0"/>

<!-- Association REQUEST TO -->
<line x1="183" y1="787" x2="440" y2="601" stroke="#8073ac" stroke-width="2"/>
<text x="241" y="760.153521033" fill="#b35806" font-family="Verdana" font-size="12">0,N</text>
<line x1="440" y1="483" x2="440" y2="601" stroke="#8073ac" stroke-width="2"/>
<text x="445.0" y="568" fill="#b35806" font-family="Verdana" font-size="12">1,1</text>
<g id="association-REQUEST TO">
	<path d="M 473 576 a 14 14 90 0 1 14 14 V 601 h -94 V 590 a 14 14 90 0 1 14 -14" fill="#b2abd2" stroke="#b2abd2" stroke-width="0"/>
	<path d="M 487 601.0 v 11 a 14 14 90 0 1 -14 14 H 407 a 14 14 90 0 1 -14 -14 V 601.0 H 94" fill="#d8daeb" stroke="#d8daeb" stroke-width="0"/>
	<rect x="393" y="576" width="94" height="50" fill="none" rx="14" stroke="#8073ac" stroke-width="2"/>
	<line x1="393" y1="601" x2="487" y2="601" stroke="#8073ac" stroke-width="1"/>
	<text x="400" y="593.7" fill="#000000" font-family="Verdana" font-size="12">REQUEST TO</text>
</g>

<!-- Association REQUEST BY -->
<line x1="183" y1="162" x2="440" y2="365" stroke="#8073ac" stroke-width="2"/>
<text x="230" y="193.080201444" fill="#b35806" font-family="Verdana" font-size="12">0,N</text>
<line x1="440" y1="483" x2="440" y2="365" stroke="#8073ac" stroke-width="2"/>
<text x="445.0" y="407" fill="#b35806" font-family="Verdana" font-size="12">1,1</text>
<g id="association-REQUEST BY">
	<path d="M 472 340 a 14 14 90 0 1 14 14 V 365 h -92 V 354 a 14 14 90 0 1 14 -14" fill="#b2abd2" stroke="#b2abd2" stroke-width="0"/>
	<path d="M 486 365.0 v 11 a 14 14 90 0 1 -14 14 H 408 a 14 14 90 0 1 -14 -14 V 365.0 H 92" fill="#d8daeb" stroke="#d8daeb" stroke-width="0"/>
	<rect x="394" y="340" width="92" height="50" fill="none" rx="14" stroke="#8073ac" stroke-width="2"/>
	<line x1="394" y1="365" x2="486" y2="365" stroke="#8073ac" stroke-width="1"/>
	<text x="401" y="357.7" fill="#000000" font-family="Verdana" font-size="12">REQUEST BY</text>
</g>

<!-- Association SEARCH -->
<line x1="183" y1="483" x2="183" y2="601" stroke="#8073ac" stroke-width="2"/>
<text x="188.0" y="534" fill="#b35806" font-family="Verdana" font-size="12">0,N</text>
<line x1="183" y1="787" x2="183" y2="601" stroke="#8073ac" stroke-width="2"/>
<text x="188.0" y="643" fill="#b35806" font-family="Verdana" font-size="12">0,N</text>
<g id="association-SEARCH">
	<path d="M 202 576 a 14 14 90 0 1 14 14 V 601 h -66 V 590 a 14 14 90 0 1 14 -14" fill="#b2abd2" stroke="#b2abd2" stroke-width="0"/>
	<path d="M 216 601.0 v 11 a 14 14 90 0 1 -14 14 H 164 a 14 14 90 0 1 -14 -14 V 601.0 H 66" fill="#d8daeb" stroke="#d8daeb" stroke-width="0"/>
	<rect x="150" y="576" width="66" height="50" fill="none" rx="14" stroke="#8073ac" stroke-width="2"/>
	<line x1="150" y1="601" x2="216" y2="601" stroke="#8073ac" stroke-width="1"/>
	<text x="157" y="593.7" fill="#000000" font-family="Verdana" font-size="12">SEARCH</text>
</g>

<!-- Association IS -->
<line x1="183" y1="787" x2="59" y2="787" stroke="#8073ac" stroke-width="2"/>
<text x="104" y="804.0" fill="#b35806" font-family="Verdana" font-size="12">1,1</text>
<line x1="59" y1="601" x2="59" y2="787" stroke="#8073ac" stroke-width="2"/>
<text x="64.0" y="652" fill="#b35806" font-family="Verdana" font-size="12">0,N</text>
<g id="association-IS">
	<path d="M 59 762 a 14 14 90 0 1 14 14 V 787 h -28 V 776 a 14 14 90 0 1 14 -14" fill="#b2abd2" stroke="#b2abd2" stroke-width="0"/>
	<path d="M 73 787.0 v 11 a 14 14 90 0 1 -14 14 H 59 a 14 14 90 0 1 -14 -14 V 787.0 H 28" fill="#d8daeb" stroke="#d8daeb" stroke-width="0"/>
	<rect x="45" y="762" width="28" height="50" fill="none" rx="14" stroke="#8073ac" stroke-width="2"/>
	<line x1="45" y1="787" x2="73" y2="787" stroke="#8073ac" stroke-width="1"/>
	<text x="52" y="779.7" fill="#000000" font-family="Verdana" font-size="12">IS</text>
</g>

<!-- Association FOLLOWED TO -->
<line x1="183" y1="787" x2="571" y2="601" stroke="#8073ac" stroke-width="2"/>
<text x="241" y="774.841355385" fill="#b35806" font-family="Verdana" font-size="12">0,N</text>
<line x1="571" y1="483" x2="571" y2="601" stroke="#8073ac" stroke-width="2"/>
<text x="576.0" y="534" fill="#b35806" font-family="Verdana" font-size="12">1,1</text>
<g id="association-FOLLOWED TO">
	<path d="M 609 576 a 14 14 90 0 1 14 14 V 601 h -104 V 590 a 14 14 90 0 1 14 -14" fill="#b2abd2" stroke="#b2abd2" stroke-width="0"/>
	<path d="M 623 601.0 v 11 a 14 14 90 0 1 -14 14 H 533 a 14 14 90 0 1 -14 -14 V 601.0 H 104" fill="#d8daeb" stroke="#d8daeb" stroke-width="0"/>
	<rect x="519" y="576" width="104" height="50" fill="none" rx="14" stroke="#8073ac" stroke-width="2"/>
	<line x1="519" y1="601" x2="623" y2="601" stroke="#8073ac" stroke-width="1"/>
	<text x="526" y="593.7" fill="#000000" font-family="Verdana" font-size="12">FOLLOWED TO</text>
</g>

<!-- Association CAN DO -->
<line x1="183" y1="483" x2="183" y2="365" stroke="#8073ac" stroke-width="2"/>
<text x="188.0" y="441" fill="#b35806" font-family="Verdana" font-size="12">0,N</text>
<line x1="183" y1="162" x2="183" y2="365" stroke="#8073ac" stroke-width="2"/>
<text x="156.0" y="332" fill="#b35806" font-family="Verdana" font-size="12">0,N</text>
<g id="association-CAN DO">
	<path d="M 201 340 a 14 14 90 0 1 14 14 V 365 h -64 V 354 a 14 14 90 0 1 14 -14" fill="#b2abd2" stroke="#b2abd2" stroke-width="0"/>
	<path d="M 215 365.0 v 11 a 14 14 90 0 1 -14 14 H 165 a 14 14 90 0 1 -14 -14 V 365.0 H 64" fill="#d8daeb" stroke="#d8daeb" stroke-width="0"/>
	<rect x="151" y="340" width="64" height="50" fill="none" rx="14" stroke="#8073ac" stroke-width="2"/>
	<line x1="151" y1="365" x2="215" y2="365" stroke="#8073ac" stroke-width="1"/>
	<text x="158" y="357.7" fill="#000000" font-family="Verdana" font-size="12">CAN DO</text>
</g>

<!-- Association WRITE -->
<line x1="183" y1="162" x2="314" y2="365" stroke="#8073ac" stroke-width="2"/>
<text x="230" y="224.047707702" fill="#b35806" font-family="Verdana" font-size="12">0,N</text>
<line x1="314" y1="483" x2="314" y2="365" stroke="#8073ac" stroke-width="2"/>
<text x="319.0" y="424" fill="#b35806" font-family="Verdana" font-size="12">1,1</text>
<g id="association-WRITE">
	<path d="M 328 340 a 14 14 90 0 1 14 14 V 365 h -56 V 354 a 14 14 90 0 1 14 -14" fill="#b2abd2" stroke="#b2abd2" stroke-width="0"/>
	<path d="M 342 365.0 v 11 a 14 14 90 0 1 -14 14 H 300 a 14 14 90 0 1 -14 -14 V 365.0 H 56" fill="#d8daeb" stroke="#d8daeb" stroke-width="0"/>
	<rect x="286" y="340" width="56" height="50" fill="none" rx="14" stroke="#8073ac" stroke-width="2"/>
	<line x1="286" y1="365" x2="342" y2="365" stroke="#8073ac" stroke-width="1"/>
	<text x="293" y="357.7" fill="#000000" font-family="Verdana" font-size="12">WRITE</text>
</g>

<!-- Association WORKS WITH -->
<line x1="59" y1="365" x2="59" y2="162" stroke="#8073ac" stroke-width="2"/>
<text x="64.0" y="323" fill="#b35806" font-family="Verdana" font-size="12">0,N</text>
<line x1="183" y1="162" x2="59" y2="162" stroke="#8073ac" stroke-width="2"/>
<text x="114" y="179.0" fill="#b35806" font-family="Verdana" font-size="12">0,N</text>
<g id="association-WORKS WITH">
	<path d="M 95 137 a 14 14 90 0 1 14 14 V 162 h -100 V 151 a 14 14 90 0 1 14 -14" fill="#b2abd2" stroke="#b2abd2" stroke-width="0"/>
	<path d="M 109 162.0 v 11 a 14 14 90 0 1 -14 14 H 23 a 14 14 90 0 1 -14 -14 V 162.0 H 100" fill="#d8daeb" stroke="#d8daeb" stroke-width="0"/>
	<rect x="9" y="137" width="100" height="50" fill="none" rx="14" stroke="#8073ac" stroke-width="2"/>
	<line x1="9" y1="162" x2="109" y2="162" stroke="#8073ac" stroke-width="1"/>
	<text x="16" y="154.7" fill="#000000" font-family="Verdana" font-size="12">WORKS WITH</text>
</g>

<!-- Association WANT -->
<line x1="59" y1="365" x2="59" y2="483" stroke="#8073ac" stroke-width="2"/>
<text x="64.0" y="416" fill="#b35806" font-family="Verdana" font-size="12">0,N</text>
<line x1="183" y1="787" x2="59" y2="483" stroke="#8073ac" stroke-width="2"/>
<text x="103" y="670.870197233" fill="#b35806" font-family="Verdana" font-size="12">0,N</text>
<g id="association-WANT">
	<path d="M 71 458 a 14 14 90 0 1 14 14 V 483 h -52 V 472 a 14 14 90 0 1 14 -14" fill="#b2abd2" stroke="#b2abd2" stroke-width="0"/>
	<path d="M 85 483.0 v 11 a 14 14 90 0 1 -14 14 H 47 a 14 14 90 0 1 -14 -14 V 483.0 H 52" fill="#d8daeb" stroke="#d8daeb" stroke-width="0"/>
	<rect x="33" y="458" width="52" height="50" fill="none" rx="14" stroke="#8073ac" stroke-width="2"/>
	<line x1="33" y1="483" x2="85" y2="483" stroke="#8073ac" stroke-width="1"/>
	<text x="40" y="475.7" fill="#000000" font-family="Verdana" font-size="12">WANT</text>
</g>

<!-- Association FOLLOWED BY -->
<line x1="183" y1="162" x2="571" y2="365" stroke="#8073ac" stroke-width="2"/>
<text x="230" y="180.057908623" fill="#b35806" font-family="Verdana" font-size="12">0,N</text>
<line x1="571" y1="483" x2="571" y2="365" stroke="#8073ac" stroke-width="2"/>
<text x="576.0" y="441" fill="#b35806" font-family="Verdana" font-size="12">1,1</text>
<g id="association-FOLLOWED BY">
	<path d="M 609 340 a 14 14 90 0 1 14 14 V 365 h -104 V 354 a 14 14 90 0 1 14 -14" fill="#b2abd2" stroke="#b2abd2" stroke-width="0"/>
	<path d="M 623 365.0 v 11 a 14 14 90 0 1 -14 14 H 533 a 14 14 90 0 1 -14 -14 V 365.0 H 104" fill="#d8daeb" stroke="#d8daeb" stroke-width="0"/>
	<rect x="519" y="340" width="104" height="50" fill="none" rx="14" stroke="#8073ac" stroke-width="2"/>
	<line x1="519" y1="365" x2="623" y2="365" stroke="#8073ac" stroke-width="1"/>
	<text x="526" y="357.7" fill="#000000" font-family="Verdana" font-size="12">FOLLOWED BY</text>
</g>

<!-- Association POST -->
<line x1="314" y1="483" x2="314" y2="601" stroke="#8073ac" stroke-width="2"/>
<text x="319.0" y="551" fill="#b35806" font-family="Verdana" font-size="12">1,1</text>
<line x1="183" y1="787" x2="314" y2="601" stroke="#8073ac" stroke-width="2"/>
<text x="241" y="723.386551745" fill="#b35806" font-family="Verdana" font-size="12">0,N</text>
<g id="association-POST">
	<path d="M 324 576 a 14 14 90 0 1 14 14 V 601 h -48 V 590 a 14 14 90 0 1 14 -14" fill="#b2abd2" stroke="#b2abd2" stroke-width="0"/>
	<path d="M 338 601.0 v 11 a 14 14 90 0 1 -14 14 H 304 a 14 14 90 0 1 -14 -14 V 601.0 H 48" fill="#d8daeb" stroke="#d8daeb" stroke-width="0"/>
	<rect x="290" y="576" width="48" height="50" fill="none" rx="14" stroke="#8073ac" stroke-width="2"/>
	<line x1="290" y1="601" x2="338" y2="601" stroke="#8073ac" stroke-width="1"/>
	<text x="297" y="593.7" fill="#000000" font-family="Verdana" font-size="12">POST</text>
</g>

<!-- Association HAS -->
<line x1="183" y1="162" x2="314" y2="162" stroke="#8073ac" stroke-width="2"/>
<text x="230" y="154.0" fill="#b35806" font-family="Verdana" font-size="12">1,1</text>
<line x1="440" y1="162" x2="314" y2="162" stroke="#8073ac" stroke-width="2"/>
<text x="390" y="179.0" fill="#b35806" font-family="Verdana" font-size="12">0,N</text>
<g id="association-HAS">
	<path d="M 320 137 a 14 14 90 0 1 14 14 V 162 h -40 V 151 a 14 14 90 0 1 14 -14" fill="#b2abd2" stroke="#b2abd2" stroke-width="0"/>
	<path d="M 334 162.0 v 11 a 14 14 90 0 1 -14 14 H 308 a 14 14 90 0 1 -14 -14 V 162.0 H 40" fill="#d8daeb" stroke="#d8daeb" stroke-width="0"/>
	<rect x="294" y="137" width="40" height="50" fill="none" rx="14" stroke="#8073ac" stroke-width="2"/>
	<line x1="294" y1="162" x2="334" y2="162" stroke="#8073ac" stroke-width="1"/>
	<text x="301" y="154.7" fill="#000000" font-family="Verdana" font-size="12">HAS</text>
</g>

<!-- Association RELATED TO -->
<line x1="183" y1="787" x2="314" y2="787" stroke="#8073ac" stroke-width="2"/>
<text x="241" y="804.0" fill="#b35806" font-family="Verdana" font-size="12">0,N</text>
<line x1="440" y1="787" x2="314" y2="787" stroke="#8073ac" stroke-width="2"/>
<text x="390" y="804.0" fill="#b35806" font-family="Verdana" font-size="12">0,N</text>
<g id="association-RELATED TO">
	<path d="M 346 762 a 14 14 90 0 1 14 14 V 787 h -92 V 776 a 14 14 90 0 1 14 -14" fill="#b2abd2" stroke="#b2abd2" stroke-width="0"/>
	<path d="M 360 787.0 v 11 a 14 14 90 0 1 -14 14 H 282 a 14 14 90 0 1 -14 -14 V 787.0 H 92" fill="#d8daeb" stroke="#d8daeb" stroke-width="0"/>
	<rect x="268" y="762" width="92" height="50" fill="none" rx="14" stroke="#8073ac" stroke-width="2"/>
	<line x1="268" y1="787" x2="360" y2="787" stroke="#8073ac" stroke-width="1"/>
	<text x="275" y="779.7" fill="#000000" font-family="Verdana" font-size="12">RELATED TO</text>
</g>

<!-- Entity COMMENT -->
<g id="entity-COMMENT">
	<g id="frame-COMMENT">
		<rect x="277" y="432" width="74" height="25" fill="#fdb863" stroke="#fdb863" stroke-width="0"/>
		<rect x="277" y="457.0" width="74" height="77" fill="#fee0b6" stroke="#fee0b6" stroke-width="0"/>
		<rect x="277" y="432" width="74" height="102" fill="none" stroke="#e08214" stroke-width="2"/>
		<line x1="277" y1="457" x2="351" y2="457" stroke="#e08214" stroke-width="1"/>
	</g>
	<text x="282" y="449.7" fill="#000000" font-family="Verdana" font-size="12">COMMENT</text>
	<text x="282" y="474.7" fill="#000000" font-family="Verdana" font-size="12">id</text>
	<line x1="282" y1="477" x2="294" y2="477" stroke="#000000" stroke-width="1"/>
	<text x="282" y="491.8" fill="#000000" font-family="Verdana" font-size="12">content</text>
	<text x="282" y="508.8" fill="#000000" font-family="Verdana" font-size="12">createdAt</text>
	<text x="282" y="525.8" fill="#000000" font-family="Verdana" font-size="12">isActive</text>
</g>

<!-- Entity TAG -->
<g id="entity-TAG">
	<g id="frame-TAG">
		<rect x="417" y="753" width="46" height="25" fill="#fdb863" stroke="#fdb863" stroke-width="0"/>
		<rect x="417" y="778.0" width="46" height="43" fill="#fee0b6" stroke="#fee0b6" stroke-width="0"/>
		<rect x="417" y="753" width="46" height="68" fill="none" stroke="#e08214" stroke-width="2"/>
		<line x1="417" y1="778" x2="463" y2="778" stroke="#e08214" stroke-width="1"/>
	</g>
	<text x="427" y="770.7" fill="#000000" font-family="Verdana" font-size="12">TAG</text>
	<text x="422" y="795.8" fill="#000000" font-family="Verdana" font-size="12">id</text>
	<line x1="422" y1="798" x2="434" y2="798" stroke="#000000" stroke-width="1"/>
	<text x="422" y="812.8" fill="#000000" font-family="Verdana" font-size="12">name</text>
</g>

<!-- Entity STATUT -->
<g id="entity-STATUT">
	<g id="frame-STATUT">
		<rect x="30" y="567" width="58" height="25" fill="#fdb863" stroke="#fdb863" stroke-width="0"/>
		<rect x="30" y="592.0" width="58" height="43" fill="#fee0b6" stroke="#fee0b6" stroke-width="0"/>
		<rect x="30" y="567" width="58" height="68" fill="none" stroke="#e08214" stroke-width="2"/>
		<line x1="30" y1="592" x2="88" y2="592" stroke="#e08214" stroke-width="1"/>
	</g>
	<text x="35" y="584.7" fill="#000000" font-family="Verdana" font-size="12">STATUT</text>
	<text x="35" y="609.8" fill="#000000" font-family="Verdana" font-size="12">id</text>
	<line x1="35" y1="612" x2="47" y2="612" stroke="#000000" stroke-width="1"/>
	<text x="35" y="626.8" fill="#000000" font-family="Verdana" font-size="12">name</text>
</g>

<!-- Entity REQUEST -->
<g id="entity-REQUEST">
	<g id="frame-REQUEST">
		<rect x="383" y="415" width="114" height="25" fill="#fdb863" stroke="#fdb863" stroke-width="0"/>
		<rect x="383" y="440.0" width="114" height="111" fill="#fee0b6" stroke="#fee0b6" stroke-width="0"/>
		<rect x="383" y="415" width="114" height="136" fill="none" stroke="#e08214" stroke-width="2"/>
		<line x1="383" y1="440" x2="497" y2="440" stroke="#e08214" stroke-width="1"/>
	</g>
	<text x="411" y="432.7" fill="#000000" font-family="Verdana" font-size="12">REQUEST</text>
	<text x="388" y="457.7" fill="#000000" font-family="Verdana" font-size="12">id</text>
	<line x1="388" y1="460" x2="400" y2="460" stroke="#000000" stroke-width="1"/>
	<text x="388" y="474.7" fill="#000000" font-family="Verdana" font-size="12">requestContent</text>
	<text x="388" y="491.8" fill="#000000" font-family="Verdana" font-size="12">response</text>
	<text x="388" y="508.8" fill="#000000" font-family="Verdana" font-size="12">responseContent</text>
	<text x="388" y="525.8" fill="#000000" font-family="Verdana" font-size="12">createdAt</text>
	<text x="388" y="542.8" fill="#000000" font-family="Verdana" font-size="12">updatedAt</text>
</g>

<!-- Entity PROJECT -->
<g id="entity-PROJECT">
	<g id="frame-PROJECT">
		<rect x="130" y="651" width="106" height="25" fill="#fdb863" stroke="#fdb863" stroke-width="0"/>
		<rect x="130" y="676.0" width="106" height="247" fill="#fee0b6" stroke="#fee0b6" stroke-width="0"/>
		<rect x="130" y="651" width="106" height="272" fill="none" stroke="#e08214" stroke-width="2"/>
		<line x1="130" y1="676" x2="236" y2="676" stroke="#e08214" stroke-width="1"/>
	</g>
	<text x="155" y="668.7" fill="#000000" font-family="Verdana" font-size="12">PROJECT</text>
	<text x="135" y="693.7" fill="#000000" font-family="Verdana" font-size="12">id</text>
	<line x1="135" y1="696" x2="147" y2="696" stroke="#000000" stroke-width="1"/>
	<text x="135" y="710.7" fill="#000000" font-family="Verdana" font-size="12">title</text>
	<text x="135" y="727.7" fill="#000000" font-family="Verdana" font-size="12">description</text>
	<text x="135" y="744.7" fill="#000000" font-family="Verdana" font-size="12">content</text>
	<text x="135" y="761.7" fill="#000000" font-family="Verdana" font-size="12">image</text>
	<text x="135" y="778.7" fill="#000000" font-family="Verdana" font-size="12">nbCollaborators</text>
	<text x="135" y="795.8" fill="#000000" font-family="Verdana" font-size="12">nbLikes</text>
	<text x="135" y="812.8" fill="#000000" font-family="Verdana" font-size="12">createdAt</text>
	<text x="135" y="829.8" fill="#000000" font-family="Verdana" font-size="12">urlFacebook</text>
	<text x="135" y="846.8" fill="#000000" font-family="Verdana" font-size="12">urlTwitter</text>
	<text x="135" y="863.8" fill="#000000" font-family="Verdana" font-size="12">urlGithub</text>
	<text x="135" y="880.8" fill="#000000" font-family="Verdana" font-size="12">urlTipeee</text>
	<text x="135" y="897.8" fill="#000000" font-family="Verdana" font-size="12">isSleeping</text>
	<text x="135" y="914.8" fill="#000000" font-family="Verdana" font-size="12">isActive</text>
</g>

<!-- Entity TECHNO -->
<g id="entity-TECHNO">
	<g id="frame-TECHNO">
		<rect x="28" y="331" width="62" height="25" fill="#fdb863" stroke="#fdb863" stroke-width="0"/>
		<rect x="28" y="356.0" width="62" height="43" fill="#fee0b6" stroke="#fee0b6" stroke-width="0"/>
		<rect x="28" y="331" width="62" height="68" fill="none" stroke="#e08214" stroke-width="2"/>
		<line x1="28" y1="356" x2="90" y2="356" stroke="#e08214" stroke-width="1"/>
	</g>
	<text x="33" y="348.7" fill="#000000" font-family="Verdana" font-size="12">TECHNO</text>
	<text x="33" y="373.8" fill="#000000" font-family="Verdana" font-size="12">id</text>
	<line x1="33" y1="376" x2="45" y2="376" stroke="#000000" stroke-width="1"/>
	<text x="33" y="390.8" fill="#000000" font-family="Verdana" font-size="12">name</text>
</g>

<!-- Entity ROLE -->
<g id="entity-ROLE">
	<g id="frame-ROLE">
		<rect x="417" y="120" width="46" height="25" fill="#fdb863" stroke="#fdb863" stroke-width="0"/>
		<rect x="417" y="145.0" width="46" height="59" fill="#fee0b6" stroke="#fee0b6" stroke-width="0"/>
		<rect x="417" y="120" width="46" height="84" fill="none" stroke="#e08214" stroke-width="2"/>
		<line x1="417" y1="145" x2="463" y2="145" stroke="#e08214" stroke-width="1"/>
	</g>
	<text x="423" y="137.7" fill="#000000" font-family="Verdana" font-size="12">ROLE</text>
	<text x="422" y="162.8" fill="#000000" font-family="Verdana" font-size="12">id</text>
	<line x1="422" y1="165" x2="434" y2="165" stroke="#000000" stroke-width="1"/>
	<text x="422" y="179.8" fill="#000000" font-family="Verdana" font-size="12">name</text>
	<text x="422" y="196.8" fill="#000000" font-family="Verdana" font-size="12">code</text>
</g>

<!-- Entity USER -->
<g id="entity-USER">
	<g id="frame-USER">
		<rect x="141" y="9" width="84" height="25" fill="#fdb863" stroke="#fdb863" stroke-width="0"/>
		<rect x="141" y="34.0" width="84" height="281" fill="#fee0b6" stroke="#fee0b6" stroke-width="0"/>
		<rect x="141" y="9" width="84" height="306" fill="none" stroke="#e08214" stroke-width="2"/>
		<line x1="141" y1="34" x2="225" y2="34" stroke="#e08214" stroke-width="1"/>
	</g>
	<text x="166" y="26.7" fill="#000000" font-family="Verdana" font-size="12">USER</text>
	<text x="146" y="51.7" fill="#000000" font-family="Verdana" font-size="12">id</text>
	<line x1="146" y1="54" x2="158" y2="54" stroke="#000000" stroke-width="1"/>
	<text x="146" y="68.7" fill="#000000" font-family="Verdana" font-size="12">firstname</text>
	<text x="146" y="85.7" fill="#000000" font-family="Verdana" font-size="12">lastname</text>
	<text x="146" y="102.7" fill="#000000" font-family="Verdana" font-size="12">username</text>
	<text x="146" y="119.7" fill="#000000" font-family="Verdana" font-size="12">password</text>
	<text x="146" y="136.7" fill="#000000" font-family="Verdana" font-size="12">mail</text>
	<text x="146" y="153.7" fill="#000000" font-family="Verdana" font-size="12">jobTitle</text>
	<text x="146" y="170.8" fill="#000000" font-family="Verdana" font-size="12">city</text>
	<text x="146" y="187.8" fill="#000000" font-family="Verdana" font-size="12">score</text>
	<text x="146" y="204.8" fill="#000000" font-family="Verdana" font-size="12">photo</text>
	<text x="146" y="221.8" fill="#000000" font-family="Verdana" font-size="12">description</text>
	<text x="146" y="238.8" fill="#000000" font-family="Verdana" font-size="12">urlFacebook</text>
	<text x="146" y="255.8" fill="#000000" font-family="Verdana" font-size="12">urlTwitter</text>
	<text x="146" y="272.8" fill="#000000" font-family="Verdana" font-size="12">urlLinkedin</text>
	<text x="146" y="289.8" fill="#000000" font-family="Verdana" font-size="12">urlGithub</text>
	<text x="146" y="306.8" fill="#000000" font-family="Verdana" font-size="12">isActive</text>
</g>

<!-- Entity FOLLOW -->
<g id="entity-FOLLOW">
	<g id="frame-FOLLOW">
		<rect x="534" y="449" width="74" height="25" fill="#fdb863" stroke="#fdb863" stroke-width="0"/>
		<rect x="534" y="474.0" width="74" height="43" fill="#fee0b6" stroke="#fee0b6" stroke-width="0"/>
		<rect x="534" y="449" width="74" height="68" fill="none" stroke="#e08214" stroke-width="2"/>
		<line x1="534" y1="474" x2="608" y2="474" stroke="#e08214" stroke-width="1"/>
	</g>
	<text x="545" y="466.7" fill="#000000" font-family="Verdana" font-size="12">FOLLOW</text>
	<text x="539" y="491.8" fill="#000000" font-family="Verdana" font-size="12">id</text>
	<line x1="539" y1="494" x2="551" y2="494" stroke="#000000" stroke-width="1"/>
	<text x="539" y="508.8" fill="#000000" font-family="Verdana" font-size="12">isFollowed</text>
</g>

<!-- Entity SKILL -->
<g id="entity-SKILL">
	<g id="frame-SKILL">
		<rect x="160" y="449" width="46" height="25" fill="#fdb863" stroke="#fdb863" stroke-width="0"/>
		<rect x="160" y="474.0" width="46" height="43" fill="#fee0b6" stroke="#fee0b6" stroke-width="0"/>
		<rect x="160" y="449" width="46" height="68" fill="none" stroke="#e08214" stroke-width="2"/>
		<line x1="160" y1="474" x2="206" y2="474" stroke="#e08214" stroke-width="1"/>
	</g>
	<text x="165" y="466.7" fill="#000000" font-family="Verdana" font-size="12">SKILL</text>
	<text x="165" y="491.8" fill="#000000" font-family="Verdana" font-size="12">id</text>
	<line x1="165" y1="494" x2="177" y2="494" stroke="#000000" stroke-width="1"/>
	<text x="165" y="508.8" fill="#000000" font-family="Verdana" font-size="12">name</text>
</g>
</svg>